<?xml version="1.0" encoding="utf-8"?>
<!-- Generator: Adobe Illustrator 16.0.4, SVG Export Plug-In . SVG Version: 6.00 Build 0)  -->
<!DOCTYPE svg PUBLIC "-//W3C//DTD SVG 1.1//EN" "http://www.w3.org/Graphics/SVG/1.1/DTD/svg11.dtd">
<svg version="1.1" id="Calque_1" xmlns="http://www.w3.org/2000/svg" xmlns:xlink="http://www.w3.org/1999/xlink" x="0px" y="0px"
	 width="595.28px" height="841.89px" viewBox="0 0 595.28 841.89" enable-background="new 0 0 595.28 841.89" xml:space="preserve">
<path fill="#FFFFFF" d="M517.19,433.863c-26.65,0-50.18,16.715-59.394,40.966H444.25v-18.321v-12.592h-12.592h-80.081
	l-25.206-25.198l24.344-24.345c10.693,7.612,23.6,11.829,36.891,11.829c25.259,0,47.88-15.043,57.984-37.571h26.185l37.483,37.495
	l8.911,8.894l8.899-8.894l51.048-51.06l8.905-8.899l-8.905-8.898l-51.048-51.055l-8.899-8.899l-8.911,8.899l-37.297,37.31h-23.786
	c-8.199-25.935-32.545-44.374-60.569-44.374c-35.026,0-63.529,28.498-63.529,63.524c0,4.449,0.466,8.858,1.386,13.174
	l-30.981,30.978l-28.532-28.532l3.879-3.874l8.905-8.899l-8.905-8.905l-51.054-51.049l-8.894-8.899l-8.905,8.899l-37.961,37.956
	h-32.545v-21.118v-12.586h-12.592H32.129H19.544v12.586v85.753v12.586h12.585h85.748h12.592v-12.586V368.63h33.66l36.846,36.843
	l8.905,8.899l8.894-8.899l15.279-15.282l28.535,28.526l-23.273,23.265c-9.429-5.277-20.14-8.119-31.06-8.119
	c-26.656,0-50.186,16.715-59.4,40.966h-26.937l-37.408-37.401l-8.905-8.899l-8.902,8.899l-51.045,51.054l-8.905,8.899l8.905,8.898
	l51.045,51.055l8.902,8.899l8.905-8.899l37.396-37.391h26.942c9.219,24.252,32.749,40.978,59.405,40.978
	c35.026,0,63.518-28.503,63.518-63.528c0-7.013-1.177-14.001-3.442-20.63l26.15-26.149l39.787,39.778v50.927v12.579h12.581h84.81
	h12.592v-12.579v-21.375h13.547c9.214,24.252,32.743,40.978,59.394,40.978c35.026,0,63.529-28.503,63.529-63.528
	C580.72,462.354,552.217,433.863,517.19,433.863z M517.19,548.329c-24.717,0-45.322-17.612-49.958-40.978h-35.574v33.967h-84.81
	v-56.134l-52.368-52.37l-41.054,41.049c3.675,7.047,5.76,15.038,5.76,23.529c0,28.13-22.807,50.937-50.932,50.937
	c-24.729,0-45.329-17.612-49.965-40.978h-41.595l-41.089,41.083L24.558,497.38l51.048-51.055l41.1,41.096h41.584
	c4.636-23.354,25.242-40.967,49.965-40.967c12.399,0,23.762,4.438,32.592,11.8l39.539-39.537l-46.333-46.331l-24.173,24.182
	l-40.539-40.53h-51.464v32.12H32.129v-85.753h85.748v33.704h50.355l41.648-41.642l51.048,51.054l-12.778,12.772l46.331,46.336
	l45.064-45.073c-1.864-5.283-2.878-10.961-2.878-16.883c0-28.137,22.808-50.938,50.938-50.938c25.905,0,47.28,19.342,50.494,44.374
	h39.068l41.001-40.99l51.055,51.048l-51.055,51.054l-41.188-41.182H436.76c-5.882,21.642-25.66,37.571-49.154,37.571
	c-14.829,0-28.171-6.336-37.473-16.447l-41.561,41.555l37.763,37.79h85.323v30.914h35.574c4.636-23.354,25.241-40.967,49.958-40.967
	c28.131,0,50.938,22.808,50.938,50.938S545.321,548.329,517.19,548.329z"/>
</svg>
