<?xml version="1.0" encoding="UTF-8"?>
<svg xmlns="http://www.w3.org/2000/svg" xmlns:xlink="http://www.w3.org/1999/xlink" width="140px" height="70px" viewBox="0 0 140 70" version="1.1">
<g id="surface1">
<path style=" stroke:none;fill-rule:nonzero;fill:rgb(36.862745%,44.705882%,89.019608%);fill-opacity:1;" d="M 123.152344 37.992188 C 116.722656 37.992188 111.042969 42.027344 108.824219 47.878906 L 105.554688 47.878906 L 105.554688 40.417969 L 83.195312 40.417969 L 77.113281 34.339844 L 82.988281 28.464844 C 85.566406 30.300781 88.679688 31.320312 91.886719 31.320312 C 97.984375 31.320312 103.441406 27.691406 105.878906 22.253906 L 112.195312 22.253906 L 121.238281 31.300781 L 123.386719 33.445312 L 125.535156 31.300781 L 140 16.835938 L 123.386719 0.222656 L 121.238281 2.371094 L 112.242188 11.371094 L 106.503906 11.371094 C 104.523438 5.113281 98.648438 0.664062 91.886719 0.664062 C 83.4375 0.664062 76.558594 7.542969 76.558594 15.996094 C 76.558594 17.066406 76.671875 18.128906 76.894531 19.167969 L 69.421875 26.644531 L 62.535156 19.761719 L 65.621094 16.679688 L 49.007812 0.0664062 L 37.703125 11.371094 L 29.851562 11.371094 L 29.851562 3.242188 L 3.089844 3.242188 L 3.089844 30.003906 L 29.851562 30.003906 L 29.851562 22.253906 L 37.96875 22.253906 L 49.007812 33.292969 L 54.84375 27.457031 L 61.726562 34.339844 L 56.109375 39.949219 C 53.835938 38.679688 51.25 37.992188 48.617188 37.992188 C 42.1875 37.992188 36.507812 42.027344 34.285156 47.878906 L 27.785156 47.878906 L 16.613281 36.707031 L 2.148438 51.171875 L 0 53.316406 L 2.148438 55.464844 L 14.464844 67.785156 L 16.613281 69.929688 L 18.761719 67.785156 L 27.785156 58.761719 L 34.285156 58.761719 C 36.507812 64.613281 42.183594 68.648438 48.617188 68.648438 C 57.066406 68.648438 63.9375 61.769531 63.9375 53.320312 C 63.9375 51.628906 63.65625 49.941406 63.109375 48.34375 L 69.417969 42.035156 L 79.019531 51.632812 L 79.019531 66.953125 L 105.554688 66.953125 L 105.554688 58.761719 L 108.824219 58.761719 C 111.042969 64.613281 116.722656 68.648438 123.152344 68.648438 C 131.605469 68.648438 138.476562 61.769531 138.476562 53.324219 C 138.480469 44.871094 131.605469 37.992188 123.152344 37.992188 Z M 123.152344 65.609375 C 117.1875 65.609375 112.21875 61.363281 111.097656 55.722656 L 102.515625 55.722656 L 102.515625 63.921875 L 82.054688 63.921875 L 82.054688 50.375 L 69.421875 37.738281 L 59.515625 47.644531 C 60.402344 49.34375 60.90625 51.269531 60.90625 53.320312 C 60.90625 60.109375 55.402344 65.609375 48.617188 65.609375 C 42.648438 65.609375 37.679688 61.363281 36.558594 55.722656 L 26.527344 55.722656 L 16.613281 65.632812 L 4.292969 53.316406 L 16.613281 41 L 26.527344 50.917969 L 36.558594 50.917969 C 37.679688 45.28125 42.652344 41.03125 48.617188 41.03125 C 51.609375 41.03125 54.351562 42.101562 56.480469 43.878906 L 66.019531 34.339844 L 54.84375 23.160156 L 49.007812 28.996094 L 39.226562 19.21875 L 26.8125 19.21875 L 26.8125 26.964844 L 6.121094 26.964844 L 6.121094 6.277344 L 26.8125 6.277344 L 26.8125 14.410156 L 38.960938 14.410156 L 49.007812 4.363281 L 61.324219 16.679688 L 58.242188 19.761719 L 69.421875 30.941406 L 80.292969 20.066406 C 79.84375 18.789062 79.597656 17.417969 79.597656 15.996094 C 79.597656 9.203125 85.101562 3.703125 91.886719 3.703125 C 98.136719 3.703125 103.296875 8.371094 104.070312 14.410156 L 113.496094 14.410156 L 123.386719 4.519531 L 135.707031 16.835938 L 123.386719 29.152344 L 113.449219 19.21875 L 103.746094 19.21875 C 102.328125 24.4375 97.558594 28.28125 91.886719 28.28125 C 88.3125 28.28125 85.089844 26.75 82.847656 24.3125 L 72.816406 34.339844 L 81.929688 43.457031 L 102.515625 43.457031 L 102.515625 50.917969 L 111.097656 50.917969 C 112.21875 45.28125 117.1875 41.03125 123.152344 41.03125 C 129.941406 41.03125 135.441406 46.535156 135.441406 53.320312 C 135.441406 60.109375 129.941406 65.609375 123.152344 65.609375 Z M 123.152344 65.609375 "/>
</g>
</svg>
