<?xml version="1.0" encoding="UTF-8"?>
<svg xmlns="http://www.w3.org/2000/svg" xmlns:xlink="http://www.w3.org/1999/xlink" width="190px" height="21px" viewBox="0 0 190 21" version="1.1">
<g id="surface1">
<path style=" stroke:none;fill-rule:nonzero;fill:rgb(36.862745%,44.705882%,89.019608%);fill-opacity:1;" d="M 57.46875 13.039062 L 61.6875 13.039062 L 61.6875 15.363281 C 61.128906 15.792969 60.464844 16.164062 59.6875 16.46875 C 58.914062 16.769531 58.140625 16.921875 57.371094 16.921875 C 55.808594 16.921875 54.550781 16.378906 53.585938 15.292969 C 52.625 14.207031 52.144531 12.578125 52.144531 10.40625 C 52.144531 8.390625 52.617188 6.871094 53.566406 5.847656 C 54.515625 4.824219 55.796875 4.3125 57.40625 4.3125 C 58.46875 4.3125 59.351562 4.570312 60.0625 5.09375 C 60.769531 5.613281 61.253906 6.324219 61.511719 7.222656 L 65.167969 6.535156 C 64.804688 4.855469 63.984375 3.535156 62.710938 2.582031 C 61.4375 1.628906 59.671875 1.152344 57.40625 1.152344 C 55.664062 1.152344 54.210938 1.457031 53.039062 2.066406 C 51.503906 2.855469 50.339844 3.992188 49.542969 5.472656 C 48.746094 6.957031 48.347656 8.648438 48.347656 10.554688 C 48.347656 12.3125 48.707031 13.9375 49.417969 15.429688 C 50.132812 16.925781 51.199219 18.074219 52.617188 18.878906 C 54.035156 19.679688 55.695312 20.082031 57.605469 20.082031 C 59.105469 20.082031 60.589844 19.796875 62.050781 19.226562 C 63.515625 18.65625 64.632812 17.996094 65.40625 17.246094 L 65.40625 9.957031 L 57.46875 9.957031 Z M 57.46875 13.039062 "/>
<path style=" stroke:none;fill-rule:nonzero;fill:rgb(36.862745%,44.705882%,89.019608%);fill-opacity:1;" d="M 72.484375 11.703125 L 81.640625 11.703125 L 81.640625 8.621094 L 72.484375 8.621094 L 72.484375 4.5625 L 82.324219 4.5625 L 82.324219 1.464844 L 68.800781 1.464844 L 68.800781 19.769531 L 82.671875 19.769531 L 82.671875 16.6875 L 72.484375 16.6875 Z M 72.484375 11.703125 "/>
<path style=" stroke:none;fill-rule:nonzero;fill:rgb(36.862745%,44.705882%,89.019608%);fill-opacity:1;" d="M 96.878906 13.6875 L 89.417969 1.464844 L 85.832031 1.464844 L 85.832031 19.769531 L 89.253906 19.769531 L 89.253906 7.832031 L 96.605469 19.769531 L 100.300781 19.769531 L 100.300781 1.464844 L 96.878906 1.464844 Z M 96.878906 13.6875 "/>
<path style=" stroke:none;fill-rule:nonzero;fill:rgb(36.862745%,44.705882%,89.019608%);fill-opacity:1;" d="M 107.878906 11.703125 L 117.035156 11.703125 L 117.035156 8.621094 L 107.878906 8.621094 L 107.878906 4.5625 L 117.71875 4.5625 L 117.71875 1.464844 L 104.195312 1.464844 L 104.195312 19.769531 L 118.066406 19.769531 L 118.066406 16.6875 L 107.878906 16.6875 Z M 107.878906 11.703125 "/>
<path style=" stroke:none;fill-rule:nonzero;fill:rgb(36.862745%,44.705882%,89.019608%);fill-opacity:1;" d="M 132.34375 9.664062 C 131.484375 9.207031 130.160156 8.769531 128.367188 8.34375 C 126.578125 7.921875 125.449219 7.511719 124.984375 7.121094 C 124.621094 6.8125 124.4375 6.441406 124.4375 6.011719 C 124.4375 5.535156 124.632812 5.15625 125.019531 4.875 C 125.628906 4.433594 126.464844 4.210938 127.535156 4.210938 C 128.570312 4.210938 129.347656 4.417969 129.867188 4.828125 C 130.386719 5.242188 130.722656 5.917969 130.878906 6.859375 L 134.5625 6.695312 C 134.503906 5.015625 133.898438 3.671875 132.742188 2.664062 C 131.585938 1.65625 129.859375 1.152344 127.574219 1.152344 C 126.171875 1.152344 124.972656 1.363281 123.980469 1.789062 C 122.992188 2.214844 122.234375 2.832031 121.707031 3.644531 C 121.179688 4.457031 120.917969 5.328125 120.917969 6.257812 C 120.917969 7.707031 121.476562 8.9375 122.597656 9.941406 C 123.390625 10.660156 124.777344 11.261719 126.75 11.753906 C 128.285156 12.136719 129.265625 12.402344 129.699219 12.550781 C 130.328125 12.777344 130.773438 13.042969 131.023438 13.34375 C 131.277344 13.648438 131.402344 14.019531 131.402344 14.449219 C 131.402344 15.125 131.101562 15.714844 130.503906 16.21875 C 129.902344 16.722656 129.007812 16.972656 127.820312 16.972656 C 126.699219 16.972656 125.8125 16.691406 125.152344 16.125 C 124.492188 15.558594 124.054688 14.671875 123.839844 13.464844 L 120.257812 13.8125 C 120.496094 15.863281 121.234375 17.421875 122.472656 18.492188 C 123.707031 19.558594 125.476562 20.09375 127.78125 20.09375 C 129.367188 20.09375 130.691406 19.871094 131.75 19.425781 C 132.8125 18.980469 133.636719 18.300781 134.214844 17.386719 C 134.796875 16.46875 135.085938 15.488281 135.085938 14.4375 C 135.085938 13.28125 134.84375 12.308594 134.359375 11.523438 C 133.871094 10.734375 133.203125 10.117188 132.34375 9.664062 Z M 132.34375 9.664062 "/>
<path style=" stroke:none;fill-rule:nonzero;fill:rgb(36.862745%,44.705882%,89.019608%);fill-opacity:1;" d="M 141.867188 11.703125 L 151.023438 11.703125 L 151.023438 8.621094 L 141.867188 8.621094 L 141.867188 4.5625 L 151.707031 4.5625 L 151.707031 1.464844 L 138.183594 1.464844 L 138.183594 19.769531 L 152.054688 19.769531 L 152.054688 16.6875 L 141.867188 16.6875 Z M 141.867188 11.703125 "/>
<path style=" stroke:none;fill-rule:nonzero;fill:rgb(36.862745%,44.705882%,89.019608%);fill-opacity:1;" d="M 166.261719 13.6875 L 158.796875 1.464844 L 155.214844 1.464844 L 155.214844 19.769531 L 158.636719 19.769531 L 158.636719 7.832031 L 165.988281 19.769531 L 169.683594 19.769531 L 169.683594 1.464844 L 166.261719 1.464844 Z M 166.261719 13.6875 "/>
<path style=" stroke:none;fill-rule:nonzero;fill:rgb(36.862745%,44.705882%,89.019608%);fill-opacity:1;" d="M 182.0625 9.957031 L 182.0625 13.039062 L 186.277344 13.039062 L 186.277344 15.363281 C 185.722656 15.792969 185.058594 16.164062 184.28125 16.46875 C 183.507812 16.773438 182.734375 16.921875 181.960938 16.921875 C 180.402344 16.921875 179.144531 16.378906 178.179688 15.292969 C 177.21875 14.207031 176.738281 12.578125 176.738281 10.40625 C 176.738281 8.390625 177.210938 6.871094 178.164062 5.847656 C 179.113281 4.824219 180.390625 4.3125 182 4.3125 C 183.0625 4.3125 183.945312 4.570312 184.65625 5.09375 C 185.363281 5.613281 185.847656 6.324219 186.105469 7.222656 L 189.761719 6.535156 C 189.398438 4.855469 188.578125 3.535156 187.304688 2.582031 C 186.035156 1.628906 184.261719 1.152344 182 1.152344 C 180.257812 1.152344 178.804688 1.457031 177.632812 2.066406 C 176.097656 2.855469 174.933594 3.992188 174.136719 5.472656 C 173.339844 6.957031 172.941406 8.648438 172.941406 10.554688 C 172.941406 12.3125 173.300781 13.9375 174.015625 15.429688 C 174.726562 16.925781 175.792969 18.074219 177.210938 18.878906 C 178.628906 19.679688 180.292969 20.082031 182.199219 20.082031 C 183.703125 20.082031 185.183594 19.796875 186.648438 19.226562 C 188.109375 18.65625 189.230469 17.996094 190 17.246094 L 190 9.957031 Z M 182.0625 9.957031 "/>
<path style=" stroke:none;fill-rule:nonzero;fill:rgb(36.862745%,44.705882%,89.019608%);fill-opacity:1;" d="M 27.46875 9.394531 C 29.289062 9.394531 30.921875 8.308594 31.648438 6.675781 L 33.539062 6.675781 L 36.242188 9.390625 L 36.886719 10.035156 L 37.527344 9.390625 L 41.210938 5.695312 L 41.851562 5.050781 L 41.210938 4.40625 L 37.527344 0.710938 L 36.886719 0.0664062 L 36.242188 0.710938 L 33.550781 3.410156 L 31.835938 3.410156 C 31.246094 1.535156 29.488281 0.199219 27.46875 0.199219 C 24.941406 0.199219 22.886719 2.261719 22.886719 4.796875 C 22.886719 5.121094 22.917969 5.4375 22.984375 5.75 L 20.75 7.992188 L 18.695312 5.929688 L 18.972656 5.648438 L 19.613281 5.003906 L 18.972656 4.359375 L 15.292969 0.664062 L 14.652344 0.0195312 L 14.007812 0.664062 L 11.269531 3.410156 L 8.921875 3.410156 L 8.921875 0.972656 L 0.921875 0.972656 L 0.921875 9 L 8.921875 9 L 8.921875 6.675781 L 11.351562 6.675781 L 14.007812 9.34375 L 14.648438 9.988281 L 15.289062 9.34375 L 16.394531 8.238281 L 18.453125 10.300781 L 16.773438 11.984375 C 16.09375 11.605469 15.320312 11.398438 14.53125 11.398438 C 12.609375 11.398438 10.914062 12.609375 10.25 14.363281 L 8.304688 14.363281 L 5.605469 11.65625 L 4.964844 11.011719 L 4.324219 11.65625 L 0.640625 15.351562 L 0 15.996094 L 0.640625 16.640625 L 4.324219 20.335938 L 4.964844 20.980469 L 5.605469 20.335938 L 8.304688 17.628906 L 10.25 17.628906 C 10.914062 19.386719 12.609375 20.59375 14.53125 20.59375 C 17.058594 20.59375 19.113281 18.53125 19.113281 15.996094 C 19.113281 15.488281 19.027344 14.984375 18.867188 14.503906 L 20.75 12.613281 L 23.621094 15.492188 L 23.621094 20.089844 L 31.554688 20.089844 L 31.554688 17.628906 L 32.53125 17.628906 C 33.195312 19.386719 34.890625 20.597656 36.816406 20.597656 C 39.339844 20.597656 41.398438 18.53125 41.398438 15.996094 C 41.398438 13.460938 39.339844 11.398438 36.816406 11.398438 C 34.894531 11.398438 33.195312 12.609375 32.53125 14.363281 L 31.554688 14.363281 L 31.554688 12.125 L 24.871094 12.125 L 23.050781 10.300781 L 24.808594 8.539062 C 25.578125 9.089844 26.511719 9.394531 27.46875 9.394531 Z M 21.769531 10.300781 L 24.488281 13.039062 L 30.644531 13.039062 L 30.644531 15.277344 L 33.210938 15.277344 C 33.546875 13.585938 35.03125 12.308594 36.816406 12.308594 C 38.84375 12.308594 40.488281 13.960938 40.488281 15.996094 C 40.488281 18.03125 38.84375 19.683594 36.816406 19.683594 C 35.03125 19.683594 33.546875 18.410156 33.210938 16.71875 L 30.644531 16.71875 L 30.644531 19.175781 L 24.53125 19.175781 L 24.53125 15.113281 L 20.753906 11.320312 L 17.789062 14.292969 C 18.054688 14.804688 18.207031 15.382812 18.207031 15.996094 C 18.207031 18.03125 16.5625 19.683594 14.53125 19.683594 C 12.75 19.683594 11.261719 18.410156 10.929688 16.71875 L 7.929688 16.71875 L 4.964844 19.691406 L 1.285156 15.996094 L 4.964844 12.300781 L 7.929688 15.277344 L 10.929688 15.277344 C 11.261719 13.585938 12.75 12.308594 14.53125 12.308594 C 15.425781 12.308594 16.246094 12.628906 16.882812 13.164062 L 19.734375 10.300781 L 16.394531 6.949219 L 14.652344 8.699219 L 11.726562 5.765625 L 8.015625 5.765625 L 8.015625 8.089844 L 1.828125 8.089844 L 1.828125 1.882812 L 8.015625 1.882812 L 8.015625 4.320312 L 11.644531 4.320312 L 14.652344 1.308594 L 18.332031 5.003906 L 17.410156 5.925781 L 20.753906 9.28125 L 24.003906 6.019531 C 23.867188 5.636719 23.792969 5.226562 23.792969 4.796875 C 23.792969 2.761719 25.4375 1.109375 27.46875 1.109375 C 29.335938 1.109375 30.878906 2.507812 31.109375 4.320312 L 33.929688 4.320312 L 36.886719 1.355469 L 40.566406 5.050781 L 36.886719 8.746094 L 33.914062 5.765625 L 31.015625 5.765625 C 30.589844 7.332031 29.164062 8.484375 27.46875 8.484375 C 26.402344 8.484375 25.4375 8.027344 24.765625 7.292969 Z M 21.769531 10.300781 "/>
</g>
</svg>
